<svg width="255" height="81" viewBox="0 0 255 81" fill="none" xmlns="http://www.w3.org/2000/svg">
<path d="M14.8 81C12.7333 81 10.5667 80.6 8.3 79.8C6.03333 79.0667 4.1 77.9 2.5 76.3C0.9 74.7667 0.0999998 72.8 0.0999998 70.4C0.0999998 69.9333 0.3 69.7 0.7 69.7C1.1 69.7 1.3 69.9667 1.3 70.5C1.3 72.1 1.73333 73.3 2.6 74.1C3.46667 74.9 4.56667 75.4333 5.9 75.7C7.16667 76.0333 8.43333 76.2 9.7 76.2C10.4333 76.2 11.1333 76.1667 11.8 76.1C12.5333 76.1 13.2333 76.0667 13.9 76C17.7667 75.4667 21.3333 74.2333 24.6 72.3C27.8667 70.3667 30.9 68.0333 33.7 65.3C36.5 62.5667 39.1333 59.7 41.6 56.7C44.1333 53.6333 46.5667 50.7333 48.9 48C51.8333 44.5333 54.7667 41.2 57.7 38C53.7667 39 49.8333 40.2333 45.9 41.7C42.0333 43.1 38.1333 44.3667 34.2 45.5C30.3333 46.5667 26.3333 47.1 22.2 47.1H21.6C19.6 47.1 18.1667 46.3 17.3 44.7C16.5 43.1 16.1 41.4333 16.1 39.7C16.1 38.6333 16.7 37.6 17.9 36.6C19.1 35.6 20.6 34.7 22.4 33.9C24.2667 33.0333 26.2 32.3 28.2 31.7C30.2667 31.0333 32.1667 30.5333 33.9 30.2C35.6333 29.8 36.9333 29.6 37.8 29.6C37.9333 29.6 38.1667 29.6333 38.5 29.7C38.8333 29.7 39 29.8 39 30C39 30.0667 38.9667 30.1667 38.9 30.3C38.8333 30.3667 38.8 30.4333 38.8 30.5C38.2 30.7 37.1667 31.0333 35.7 31.5C34.2333 31.9667 32.6 32.5333 30.8 33.2C29 33.8 27.2333 34.4667 25.5 35.2C23.8333 35.9333 22.4333 36.6667 21.3 37.4C20.2333 38.0667 19.7 38.6667 19.7 39.2C19.7 39.8 20.2333 40.1667 21.3 40.3C22.3667 40.4333 23.1 40.5 23.5 40.5C23.8333 40.5 24.1667 40.5 24.5 40.5C24.8333 40.5 25.1333 40.4667 25.4 40.4C31.4 39.8 37.4333 38.7333 43.5 37.2C49.6333 35.6667 55.7333 34.4333 61.8 33.5L66.2 28.6C69.5333 24.9333 72.8333 21.3 76.1 17.7C79.4333 14.1 82.8 10.5 86.2 6.9C87.2667 5.83333 88.1667 4.76666 88.9 3.7C89.6333 2.63333 90.5 1.56666 91.5 0.499995C92.2333 0.899998 93.0667 1.13333 94 1.2C94.9333 1.2 95.8333 1.26666 96.7 1.4C97.6333 1.46667 98.4 1.76667 99 2.3C99.6667 2.76666 100.067 3.6 100.2 4.8C100.267 5.53333 100.167 6.23333 99.9 6.9C99.7 7.56666 99.4333 8.16666 99.1 8.7C98.3 10.1667 97.4667 11.6 96.6 13C95.7333 14.4 94.8333 15.8 93.9 17.2C92.4333 19.6 90.8333 22.2 89.1 25C87.3667 27.7333 85.6333 30.5667 83.9 33.5C85.0333 33.9 85.9 34.5 86.5 35.3C87.1 36.0333 87.3333 37.0333 87.2 38.3C87.5333 38.8333 87.9 39.5 88.3 40.3C88.7667 41.1 89 41.8333 89 42.5C89 44.1667 88.4333 45.2333 87.3 45.7C86.1667 46.1667 85.0333 46.6667 83.9 47.2C83.4333 47.4 82.8667 47.7667 82.2 48.3C81.6 48.7667 81.1 49 80.7 49C80.5 49 80.4 48.8333 80.4 48.5C80.4 48.2333 80.8333 47.8 81.7 47.2C82.5667 46.5333 83.4333 45.6667 84.3 44.6C85.1667 43.5333 85.6 42.3 85.6 40.9C85.6 39.9 85.2333 39.1 84.5 38.5C83.8333 37.8333 83 37.3 82 36.9C80.1333 40.3667 78.4 43.8667 76.8 47.4C75.2667 50.8667 74.1333 54.2333 73.4 57.5C73.3333 58.0333 73.2333 58.5667 73.1 59.1C73.0333 59.6333 73 60.1667 73 60.7C73 61.3667 73.1 62.1 73.3 62.9C73.5667 63.6333 74.1333 64 75 64C76.3333 64 77.6667 63.3667 79 62.1C80.3333 60.7667 81.3333 59.6 82 58.6C82.2667 58.2667 82.5 58.0333 82.7 57.9C82.9667 57.7667 83.0333 57.9333 82.9 58.4C82.8333 58.8 82.7 59.1667 82.5 59.5C82.3667 59.7667 82.2 60.1 82 60.5C81.7333 61.1667 81.4 62.0667 81 63.2C80.6 64.2667 80.1 65.2333 79.5 66.1C78.9 66.9667 78.1667 67.4 77.3 67.4C76.9 67.4 76.2333 67.1667 75.3 66.7C74.3667 66.3 73.4667 65.8333 72.6 65.3C71.7333 64.7667 71.1333 64.3667 70.8 64.1C70 63.5 69.5 62.8 69.3 62C69.1 61.1333 69 60.2667 69 59.4C69 56.4667 69.7 52.9 71.1 48.7C72.5 44.5 74.1667 40.2333 76.1 35.9C75.7 35.8333 75.3 35.8 74.9 35.8C74.5667 35.8 74.2333 35.8 73.9 35.8C71.9667 35.8 70.0333 35.9333 68.1 36.2C66.1667 36.4 64.2333 36.6667 62.3 37C59.9667 39.8667 57.4333 43.2333 54.7 47.1C51.9667 50.9 49.0667 54.8 46 58.8C42.9333 62.7333 39.7 66.3667 36.3 69.7C32.9 73.1 29.4 75.8333 25.8 77.9C22.2 79.9667 18.5333 81 14.8 81ZM65.8 32.9C68.8 32.5 71.7333 32.3 74.6 32.3C75.0667 32.3 75.5333 32.3 76 32.3C76.5333 32.3 77.1 32.3333 77.7 32.4C79.3667 28.8 81 25.4 82.6 22.2C84.2667 19 85.6333 16.3667 86.7 14.3C86.8333 13.9667 87 13.6 87.2 13.2C87.4667 12.7333 87.6 12.3 87.6 11.9C87.6 11.5 87.5333 11.3 87.4 11.3C86.9333 11.3 86.0667 11.8333 84.8 12.9C83.6 13.9667 82.1333 15.3667 80.4 17.1C78.6667 18.8333 76.8667 20.7 75 22.7C73.2 24.6333 71.4667 26.5333 69.8 28.4C68.2 30.2 66.8667 31.7 65.8 32.9ZM100.544 65.3C98.6771 65.3 97.4104 64.7 96.7438 63.5C96.1438 62.2333 95.9438 60.9667 96.1438 59.7C96.4104 57.9667 96.9771 56.4 97.8438 55C98.7771 53.6 99.7104 52.2667 100.644 51C101.31 50.1333 101.777 49.4 102.044 48.8C102.377 48.2 102.277 47.8667 101.744 47.8C101.41 48.0667 100.877 48.3333 100.144 48.6C99.4104 48.8667 98.6771 49 97.9438 49C97.3438 49 96.7771 48.8667 96.2438 48.6C95.7104 48.3333 95.3438 47.8667 95.1438 47.2C94.4771 48.2667 93.8438 49.2667 93.2438 50.2C92.6438 51.0667 92.0771 51.9 91.5438 52.7C90.5438 54.1 89.6104 55.4333 88.7438 56.7C87.8771 57.9 86.7438 59.3 85.3437 60.9C84.8771 61.4333 84.4437 61.7 84.0437 61.7C83.6437 61.7 83.4437 61.4667 83.4437 61C83.4437 60.7333 83.5437 60.4667 83.7437 60.2C85.2771 58.3333 86.5438 56.7333 87.5438 55.4C88.5438 54 89.7104 52.3667 91.0438 50.5C92.3771 48.5 93.5438 46.2667 94.5438 43.8C95.5438 41.3333 96.3438 39.1333 96.9438 37.2C97.5438 35.2 97.8771 34 97.9438 33.6C99.6771 34.2667 100.877 35 101.544 35.8C102.277 36.6 102.644 37.4667 102.644 38.4C102.644 39.6667 102.044 40.9667 100.844 42.3C99.7104 43.6333 98.3771 44.8667 96.8438 46C97.4438 46.8667 98.1438 47.3 98.9438 47.3C99.8104 47.3 100.677 46.9333 101.544 46.2C102.477 45.4667 103.177 44.8667 103.644 44.4C104.71 43.0667 105.877 42.4 107.144 42.4C107.877 42.4 108.51 42.6333 109.044 43.1C109.644 43.5 109.944 44.0333 109.944 44.7C109.944 45.0333 109.844 45.3667 109.644 45.7C108.644 47.0333 107.51 48.6667 106.244 50.6C104.977 52.5333 103.81 54.4667 102.744 56.4C101.744 58.2667 101.01 59.8667 100.544 61.2C100.477 61.4667 100.41 61.7 100.344 61.9C100.344 62.0333 100.344 62.1667 100.344 62.3C100.344 62.8333 100.577 63.1 101.044 63.1C101.377 63.1 101.777 62.9667 102.244 62.7C102.71 62.4333 103.077 62.1667 103.344 61.9C104.544 60.8333 106.044 59.1667 107.844 56.9C109.644 54.6333 111.31 52.4667 112.844 50.4C113.777 49.0667 114.41 48.4 114.744 48.4C115.077 48.4 115.077 48.8333 114.744 49.7C114.477 50.5667 113.977 51.5667 113.244 52.7C112.244 54.1 111.077 55.8 109.744 57.8C108.477 59.7333 107.044 61.4667 105.444 63C103.91 64.5333 102.277 65.3 100.544 65.3ZM117.226 65.4C115.759 65.4 114.459 64.8333 113.326 63.7C112.192 62.5667 111.626 60.8333 111.626 58.5C111.626 56.9 111.992 54.9667 112.726 52.7C113.526 50.3667 114.492 48 115.626 45.6C116.826 43.1333 118.026 40.8333 119.226 38.7C120.492 36.5 121.559 34.7 122.426 33.3H118.226C117.226 33.3 116.726 32.9667 116.726 32.3C116.726 31.9667 116.859 31.6667 117.126 31.4C117.392 31.1333 117.692 31 118.026 31H123.926C124.192 30.6 124.592 29.9333 125.126 29C125.726 28 126.326 26.9333 126.926 25.8C127.592 24.6 128.126 23.5667 128.526 22.7C128.992 21.8333 129.226 21.3 129.226 21.1C129.226 20.7 129.059 20.4333 128.726 20.3C128.459 20.1667 128.259 20.0333 128.126 19.9C127.926 19.5667 127.826 19.3333 127.826 19.2C127.826 18.8667 127.992 18.6333 128.326 18.5C128.659 18.3 128.959 18.2 129.226 18.2C129.826 18.2 130.692 18.5 131.826 19.1C133.026 19.6333 134.159 20.2 135.226 20.8C136.359 21.3333 137.059 21.6333 137.326 21.7C137.059 22.1667 136.492 23.0333 135.626 24.3C134.759 25.5 133.892 26.7667 133.026 28.1C132.159 29.3667 131.526 30.3333 131.126 31L146.926 30.9C148.126 30.9 148.726 31.1333 148.726 31.6C148.726 31.9333 148.426 32.3 147.826 32.7C147.226 33.0333 146.626 33.2333 146.026 33.3C144.626 33.3667 142.826 33.4333 140.626 33.5C138.492 33.5 136.459 33.5333 134.526 33.6C132.659 33.6667 131.392 33.8 130.726 34C129.859 34.2667 128.859 35.1 127.726 36.5C126.659 37.8333 125.526 39.4667 124.326 41.4C123.192 43.3333 122.092 45.3333 121.026 47.4C119.959 49.4667 119.059 51.3667 118.326 53.1C117.592 54.7667 117.126 56.0333 116.926 56.9C116.792 57.5 116.692 58.0667 116.626 58.6C116.559 59.0667 116.526 59.5 116.526 59.9C116.526 60.8333 116.692 61.5 117.026 61.9C117.426 62.2333 117.859 62.4 118.326 62.4C119.192 62.4 119.959 62.0667 120.626 61.4C121.826 60.3333 123.326 58.7667 125.126 56.7C126.992 54.5667 128.692 52.4667 130.226 50.4C131.159 49.0667 131.792 48.4 132.126 48.4C132.459 48.4 132.459 48.8333 132.126 49.7C131.792 50.5667 131.259 51.5667 130.526 52.7C129.659 53.9667 128.559 55.6 127.226 57.6C125.892 59.5333 124.459 61.2667 122.926 62.8C121.192 64.5333 119.292 65.4 117.226 65.4ZM149.211 36.1C147.944 35.8333 146.778 35.1667 145.711 34.1C144.711 33.0333 144.344 31.8333 144.611 30.5C144.744 29.7667 145.011 29.3 145.411 29.1C145.811 28.9 146.544 28.7333 147.611 28.6C148.811 28.4667 149.611 28.3667 150.011 28.3C150.478 28.2333 150.911 28.1667 151.311 28.1C151.778 27.9667 152.611 27.8 153.811 27.6C154.078 27.5333 154.411 27.3667 154.811 27.1C155.211 26.8333 155.344 27 155.211 27.6C155.211 27.8667 154.978 28.2 154.511 28.6C154.111 28.9333 153.744 29.1667 153.411 29.3C152.678 29.6333 151.844 30.0333 150.911 30.5C150.044 30.9667 149.378 31.6 148.911 32.4C148.711 32.8 148.611 33.1667 148.611 33.5C148.611 34.4333 148.944 34.9667 149.611 35.1C149.744 35.1 149.811 35.2 149.811 35.4C149.811 35.5333 149.744 35.7 149.611 35.9C149.478 36.1 149.344 36.1667 149.211 36.1ZM136.811 65.4C134.344 65.4 132.611 64.6333 131.611 63.1C130.678 61.5667 130.211 59.7667 130.211 57.7C130.211 54.5667 130.778 51.9667 131.911 49.9C131.244 49.5667 131.078 49.1667 131.411 48.7C132.211 47.6333 133.144 46.3667 134.211 44.9C135.278 43.4333 136.311 42.1 137.311 40.9C138.378 39.7 139.244 39 139.911 38.8C140.111 38.7333 140.378 38.7 140.711 38.7C141.778 38.7 142.744 39.0667 143.611 39.8C144.544 40.5333 145.144 41 145.411 41.2C143.811 42.8 142.211 44.6333 140.611 46.7C139.078 48.7667 137.778 50.9667 136.711 53.3C135.644 55.6333 135.111 58 135.111 60.4C135.111 61.2667 135.278 61.9 135.611 62.3C135.944 62.6333 136.344 62.8 136.811 62.8C137.811 62.8 138.844 62.3333 139.911 61.4C141.111 60.3333 142.611 58.7667 144.411 56.7C146.278 54.5667 147.978 52.4667 149.511 50.4C150.444 49.0667 151.078 48.4 151.411 48.4C151.744 48.4 151.744 48.8333 151.411 49.7C151.144 50.5667 150.644 51.5667 149.911 52.7C148.978 53.9667 147.844 55.6 146.511 57.6C145.178 59.5333 143.744 61.2667 142.211 62.8C141.344 63.6667 140.411 64.3 139.411 64.7C138.478 65.1667 137.611 65.4 136.811 65.4ZM154.245 64C152.578 64 151.078 63.6333 149.745 62.9C148.411 62.1 147.745 60.8667 147.745 59.2C147.745 58.6 147.845 57.9667 148.045 57.3C148.311 56.3667 148.678 55.7667 149.145 55.5C149.678 55.1667 149.911 55.2333 149.845 55.7C149.711 56.3667 149.845 56.9667 150.245 57.5C150.645 58.0333 151.178 58.4667 151.845 58.8C152.645 59.1333 153.311 59.3 153.845 59.3C155.178 59.3 156.378 58.8 157.445 57.8C158.578 56.7333 159.145 55.6 159.145 54.4C159.145 53.6 158.911 52.9333 158.445 52.4C157.645 51.2667 156.745 50.4 155.745 49.8C154.811 49.1333 154.078 48.2 153.545 47L153.445 47.2C152.911 48.2667 152.311 49.2667 151.645 50.2C151.045 51.0667 150.478 51.9 149.945 52.7C148.945 54.1 147.978 55.4333 147.045 56.7C146.178 57.9 145.045 59.3 143.645 60.9C143.178 61.4333 142.745 61.7 142.345 61.7C141.945 61.7 141.745 61.4667 141.745 61C141.745 60.7333 141.845 60.4667 142.045 60.2C143.578 58.3333 144.845 56.7333 145.845 55.4C146.911 54 148.078 52.3667 149.345 50.5C150.011 49.5667 150.678 48.5333 151.345 47.4C152.078 46.2 152.611 45.0667 152.945 44C152.878 41.8667 153.578 40.0333 155.045 38.5C156.511 36.9 158.311 35.7 160.445 34.9C162.578 34.1 164.578 33.7667 166.445 33.9C166.911 33.9 167.378 34.2667 167.845 35C168.378 35.7333 168.811 36.5 169.145 37.3C169.545 38.0333 169.778 38.4667 169.845 38.6V38.8C169.845 39 169.745 39.1667 169.545 39.3C169.411 39.4333 169.178 39.3667 168.845 39.1C168.645 39.0333 168.311 39 167.845 39C166.845 39 165.645 39.2 164.245 39.6C162.845 39.9333 161.445 40.4333 160.045 41.1C158.711 41.7667 157.611 42.5 156.745 43.3C155.878 44.1 155.511 44.9667 155.645 45.9C155.778 46.7667 156.145 47.4333 156.745 47.9C157.345 48.3667 158.078 48.9 158.945 49.5C159.811 50.0333 160.745 50.8667 161.745 52C163.011 53.4667 163.645 54.9667 163.645 56.5C163.645 57.8333 163.211 59.0667 162.345 60.2C161.478 61.2667 160.445 62.1333 159.245 62.8C157.845 63.6 156.178 64 154.245 64ZM170.478 65.1C169.411 65.1 168.511 64.7333 167.778 64C167.111 63.3333 166.611 62.5333 166.278 61.6C165.945 60.6667 165.778 59.8667 165.778 59.2C165.778 56.9333 166.478 54.5333 167.878 52C169.278 49.4667 171.078 47.1 173.278 44.9C175.545 42.7 177.911 40.9 180.378 39.5C182.845 38.1 185.145 37.4 187.278 37.4C188.811 37.4 190.345 38.4333 191.878 40.5C192.011 40.7 192.145 40.9667 192.278 41.3C192.478 41.6333 192.578 41.9667 192.578 42.3C192.578 42.9 192.345 43.3 191.878 43.5C191.811 43.5667 191.645 43.3667 191.378 42.9C191.178 42.3667 190.478 42.1 189.278 42.1C188.145 42.1 186.645 42.6333 184.778 43.7C182.911 44.7667 180.945 46.1667 178.878 47.9C176.878 49.6333 175.045 51.5 173.378 53.5C171.778 55.5 170.611 57.4333 169.878 59.3C169.745 59.7667 169.611 60.2333 169.478 60.7C169.345 61.1667 169.278 61.5667 169.278 61.9C169.278 62.5 169.478 62.8 169.878 62.8C170.278 62.8 170.811 62.5667 171.478 62.1C172.878 61.1 174.345 59.8667 175.878 58.4C177.411 56.8667 178.878 55.3 180.278 53.7C181.745 52.0333 182.978 50.4667 183.978 49C184.978 47.5333 185.611 46.3333 185.878 45.4C186.011 44.8667 186.778 44.6 188.178 44.6C189.311 44.6 190.278 44.8667 191.078 45.4C191.878 45.8667 192.078 46.4 191.678 47C190.478 48.8 189.311 50.7 188.178 52.7C187.045 54.6333 186.211 56.6 185.678 58.6C185.611 58.8667 185.545 59.1 185.478 59.3C185.478 59.5 185.478 59.6667 185.478 59.8C185.478 60.4667 185.745 60.8 186.278 60.8C186.878 60.8 187.545 60.5 188.278 59.9C189.678 58.5667 191.145 56.8667 192.678 54.8C194.278 52.6667 195.911 50.5667 197.578 48.5C198.178 47.8333 198.578 47.5 198.778 47.5C198.978 47.5 199.078 47.6667 199.078 48C199.078 48.2667 199.011 48.5333 198.878 48.8C198.611 49.4667 198.245 50.1667 197.778 50.9C197.311 51.5667 196.878 52.1667 196.478 52.7C196.145 53.1667 195.578 54 194.778 55.2C193.978 56.4 193.045 57.6667 191.978 59C190.911 60.3333 189.811 61.5 188.678 62.5C187.545 63.4333 186.478 63.9 185.478 63.9C184.078 63.9 182.945 63.4667 182.078 62.6C181.278 61.6667 180.878 60.8333 180.878 60.1C180.878 59.1667 180.911 58.5333 180.978 58.2C181.111 57.5333 181.311 56.7333 181.578 55.8C181.911 54.8667 182.211 53.9667 182.478 53.1C181.945 53.8333 181.145 54.8667 180.078 56.2C179.011 57.5333 177.845 58.9 176.578 60.3C175.378 61.6333 174.211 62.7667 173.078 63.7C171.945 64.6333 171.078 65.1 170.478 65.1ZM211.231 65.2C209.765 65.2 208.531 64.7667 207.531 63.9C206.598 63.0333 206.131 61.6667 206.131 59.8C206.131 58.2 206.398 56.6 206.931 55C207.465 53.3333 208.031 51.8333 208.631 50.5C209.298 49.1667 209.831 48.1667 210.231 47.5C211.698 44.7667 212.165 43.4 211.631 43.4C211.165 43.4 210.098 44.2667 208.431 46C206.831 47.6667 204.865 50.0333 202.531 53.1C200.465 55.7667 199.098 57.8667 198.431 59.4C197.765 60.8667 197.331 62.0667 197.131 63C197.065 63.6 196.565 63.9 195.631 63.9C194.898 63.9 194.165 63.6 193.431 63C192.698 62.3333 192.331 61.4333 192.331 60.3C192.331 59.9667 192.631 59.1 193.231 57.7C193.831 56.3 194.531 54.6667 195.331 52.8C196.198 50.9333 197.031 49.1667 197.831 47.5C198.631 45.8333 199.231 44.5667 199.631 43.7C198.831 43.2333 198.665 42.6333 199.131 41.9L202.031 36.6C202.231 36.4667 202.831 36.2333 203.831 35.9C204.898 35.5 205.865 35.3 206.731 35.3C207.931 35.3 208.531 35.7 208.531 36.5C208.531 36.9 208.265 37.5667 207.731 38.5C207.531 38.8333 207.065 39.6667 206.331 41C205.598 42.2667 204.765 43.7667 203.831 45.5C202.965 47.1667 202.131 48.7667 201.331 50.3C200.598 51.7667 200.065 52.8667 199.731 53.6C199.731 53.6667 199.698 53.7333 199.631 53.8C199.631 53.8 199.631 53.8333 199.631 53.9C199.631 54.1667 199.865 53.9333 200.331 53.2C200.865 52.4667 201.265 51.9333 201.531 51.6C203.531 48.8667 205.598 46.3333 207.731 44C209.931 41.6667 212.231 39.3667 214.631 37.1C215.098 37.3667 215.765 37.5333 216.631 37.6C217.565 37.6667 218.431 37.8333 219.231 38.1C220.031 38.3 220.431 38.8333 220.431 39.7C220.431 41.0333 219.865 42.5333 218.731 44.2C217.665 45.8667 216.465 47.5667 215.131 49.3C213.865 50.9667 212.665 52.9667 211.531 55.3C210.398 57.6333 209.831 59.6 209.831 61.2C209.831 62.5333 210.265 63.2 211.131 63.2C211.531 63.2 212.065 63 212.731 62.6C213.265 62.2667 214.298 61.4333 215.831 60.1C217.365 58.7 218.998 56.7667 220.731 54.3C221.265 53.5 221.798 53.1 222.331 53.1C222.598 53.1 222.765 53.2333 222.831 53.5C222.898 53.7 222.865 53.9667 222.731 54.3C218.065 61.5667 214.231 65.2 211.231 65.2ZM226.768 29.2C226.368 29.2 226.168 29.0667 226.168 28.8C226.168 28.4667 226.568 27.9333 227.368 27.2C228.168 26.4667 228.968 25.6 229.768 24.6C230.568 23.6 230.968 22.5333 230.968 21.4C230.968 20.4 230.701 19.7333 230.168 19.4C229.701 19 229.201 18.6667 228.668 18.4C228.201 18.0667 227.968 17.5667 227.968 16.9C227.968 14.7 229.001 13.6 231.068 13.6C232.068 13.6 233.068 13.9333 234.068 14.6C235.135 15.2667 235.668 16.1333 235.668 17.2C235.668 19.3333 235.068 21.3667 233.868 23.3C232.735 25.2333 231.301 26.8 229.568 28C229.235 28.2667 228.801 28.5333 228.268 28.8C227.801 29.0667 227.301 29.2 226.768 29.2ZM239.401 64C237.734 64 236.234 63.6333 234.901 62.9C233.567 62.1 232.901 60.8667 232.901 59.2C232.901 58.6 233.001 57.9667 233.201 57.3C233.467 56.3667 233.834 55.7667 234.301 55.5C234.834 55.1667 235.067 55.2333 235.001 55.7C234.867 56.3667 235.001 56.9667 235.401 57.5C235.801 58.0333 236.334 58.4667 237.001 58.8C237.801 59.1333 238.467 59.3 239.001 59.3C240.334 59.3 241.534 58.8 242.601 57.8C243.734 56.7333 244.301 55.6 244.301 54.4C244.301 53.6 244.067 52.9333 243.601 52.4C242.801 51.2667 241.901 50.4 240.901 49.8C239.967 49.1333 239.234 48.2 238.701 47L238.601 47.2C238.067 48.2667 237.467 49.2667 236.801 50.2C236.201 51.0667 235.634 51.9 235.101 52.7C234.101 54.1 233.134 55.4333 232.201 56.7C231.334 57.9 230.201 59.3 228.801 60.9C228.334 61.4333 227.901 61.7 227.501 61.7C227.101 61.7 226.901 61.4667 226.901 61C226.901 60.7333 227.001 60.4667 227.201 60.2C228.734 58.3333 230.001 56.7333 231.001 55.4C232.067 54 233.234 52.3667 234.501 50.5C235.167 49.5667 235.834 48.5333 236.501 47.4C237.234 46.2 237.767 45.0667 238.101 44C238.034 41.8667 238.734 40.0333 240.201 38.5C241.667 36.9 243.467 35.7 245.601 34.9C247.734 34.1 249.734 33.7667 251.601 33.9C252.067 33.9 252.534 34.2667 253.001 35C253.534 35.7333 253.967 36.5 254.301 37.3C254.701 38.0333 254.934 38.4667 255.001 38.6V38.8C255.001 39 254.901 39.1667 254.701 39.3C254.567 39.4333 254.334 39.3667 254.001 39.1C253.801 39.0333 253.467 39 253.001 39C252.001 39 250.801 39.2 249.401 39.6C248.001 39.9333 246.601 40.4333 245.201 41.1C243.867 41.7667 242.767 42.5 241.901 43.3C241.034 44.1 240.667 44.9667 240.801 45.9C240.934 46.7667 241.301 47.4333 241.901 47.9C242.501 48.3667 243.234 48.9 244.101 49.5C244.967 50.0333 245.901 50.8667 246.901 52C248.167 53.4667 248.801 54.9667 248.801 56.5C248.801 57.8333 248.367 59.0667 247.501 60.2C246.634 61.2667 245.601 62.1333 244.401 62.8C243.001 63.6 241.334 64 239.401 64Z" fill="white"/>
</svg>
